<svg width="434" height="421" viewBox="0 0 434 421" fill="none" xmlns="http://www.w3.org/2000/svg">
<path d="M220.312 222C221.435 222.998 222.472 224.09 223.41 225.263L226 228.5L229.951 234.821C230.648 235.936 231.21 237.13 231.626 238.378V238.378C231.875 239.125 232.071 239.889 232.212 240.663L232.747 243.609C232.915 244.534 233.166 245.443 233.496 246.324V246.324C234.16 248.094 234.5 249.968 234.5 251.858V253.049C234.5 254.678 234.322 256.302 233.968 257.893L233.5 260L233.49 260.1C233.165 263.346 232.325 266.519 231 269.5V269.5L227.594 274.95C226.536 276.642 225.254 278.184 223.783 279.532V279.532C221.294 281.814 218.316 283.495 215.077 284.448L211.733 285.431C211.578 285.477 211.429 285.541 211.289 285.621V285.621C209.865 286.435 209.9 288.5 211.352 289.264L217.5 292.5L224 295L230 297L237.5 300L244 302L251.5 303.5L260.5 306L270 308.5L279.162 309.773C285.042 310.589 290.984 310.881 296.916 310.643L313 310L328.583 308.539C328.86 308.513 329.133 308.456 329.397 308.368V308.368C331.543 307.652 332.529 305.179 331.465 303.184L325.5 292V292C323.839 288.679 322.587 285.169 321.769 281.547L320.605 276.392C319.874 273.156 319.72 269.816 320.149 266.527L320.807 261.477C320.934 260.505 321.283 259.576 321.826 258.76V258.76C322.588 257.617 323.699 256.75 324.993 256.288L325.997 255.93C328.547 255.019 331.362 255.226 333.75 256.5L336.188 257.8C337.061 258.266 337.975 258.649 338.919 258.944L343.42 260.35C344.803 260.782 346.226 261.073 347.668 261.217V261.217C349.548 261.405 351.444 261.343 353.307 261.032L357.13 260.395C360.688 259.802 364.129 258.65 367.327 256.982L368.835 256.195C372.238 254.42 375.986 253.405 379.819 253.223V253.223C382.916 253.075 386.014 253.473 388.973 254.398L392.5 255.5L393.453 255.704C397.431 256.557 401.552 256.487 405.5 255.5V255.5L409.515 254.697C410.149 254.57 410.715 254.214 411.103 253.697V253.697C411.659 252.955 411.783 251.975 411.43 251.117L398.668 220.179C396.565 215.083 393.787 210.293 390.407 205.938L388.903 204L383.387 207.633C378.477 210.868 373.229 213.559 367.737 215.659V215.659C361.932 217.879 355.89 219.424 349.732 220.264L347.643 220.549C340.568 221.513 333.41 221.713 326.293 221.143L312 220L283 215V263.384C283 268.469 280.514 273.233 276.342 276.141L275.601 276.657C270.239 280.394 263.031 280.045 258.055 275.806V275.806C254.848 273.074 253 269.073 253 264.86V209L245.5 204L229.709 195L220.312 222V222Z" fill="#1A1826"/>
<path d="M253 264.86C253 269.073 254.848 273.074 258.055 275.806V275.806C263.031 280.045 270.239 280.394 275.601 276.657L276.342 276.141C280.514 273.233 283 268.469 283 263.384V215V215C283 211.194 281.327 207.58 278.425 205.118L277.549 204.375C271.336 199.103 262.097 199.566 256.442 205.43L253 209V264.86Z" fill="#ABE9B3"/>
<path d="M348.948 305.748C346.5 306.524 343.824 305.955 341.905 304.249V304.249C340.983 303.43 340.285 302.39 339.875 301.228L337.5 294.5L334.268 284.804C333.757 283.27 333.359 281.701 333.078 280.109L332.131 274.743C332.044 274.252 332.05 273.749 332.148 273.261V273.261C332.607 270.965 334.927 269.551 337.178 270.194L340 271V271C346.557 272.639 353.424 272.566 359.945 270.788L361 270.5L365.773 269.008C367.921 268.337 370.011 267.494 372.024 266.488L375.575 264.712C375.858 264.571 376.124 264.401 376.371 264.203V264.203C377.679 263.157 379.461 262.927 380.992 263.607L385.993 265.83C386.994 266.275 388.046 266.596 389.125 266.787L391.253 267.162C394.399 267.717 397.612 267.785 400.779 267.363L403.5 267H410.5V267C412.433 267 414 268.567 414 270.5V272.5V274.576C414 277.683 412.566 280.616 410.113 282.523V282.523C409.705 282.841 409.273 283.126 408.821 283.377L400.5 288L387.5 293L376.5 296.5L365.5 300.5L348.948 305.748Z" fill="#ABE9B3"/>
<path d="M144.5 63.5L149.5 72.5L156.088 69.8647C158.355 68.9582 160.721 68.3255 163.138 67.9803V67.9803C167.656 67.3349 172.26 67.7064 176.616 69.0676L178 69.5L185 72.5L186.748 73.549C188.766 74.7594 190 76.9395 190 79.2921V79.2921C190 80.4128 189.719 81.5155 189.182 82.4993L188.107 84.4705C187.389 85.7869 187.124 87.3028 187.352 88.7849V88.7849C187.748 91.3647 189.579 93.4935 192.071 94.2721L194.911 95.1598C195.632 95.3851 196.312 95.7266 196.923 96.1709L198.02 96.9694C200.046 98.4425 200.756 101.137 199.72 103.417V103.417C199.252 104.445 198.467 105.296 197.48 105.845L191.321 109.266C190.452 109.749 189.704 110.423 189.133 111.238V111.238C187.552 113.497 187.552 116.503 189.133 118.762L190 120L194.5 117.5L206.5 110V110C211.477 106.89 214.5 101.435 214.5 95.566V93L206.754 86.7432C203.686 84.2656 202.757 79.9867 204.52 76.4598V76.4598C205.759 73.9817 205.695 71.0518 204.35 68.6299L201.5 63.5L190 58.5L177.148 55.476C174.392 54.8275 171.57 54.5 168.739 54.5V54.5C160.794 54.5 153.064 57.0766 146.709 61.8432L144.5 63.5Z" fill="#28233B"/>
<path fill-rule="evenodd" clip-rule="evenodd" d="M214.5 93V95.566C214.5 101.435 211.477 106.89 206.5 110V110L208.916 110.604C212.533 111.508 215.74 113.604 218.019 116.554V116.554C221.161 120.62 226.008 123 231.146 123H232.5L246.5 66L251.526 39.9547C251.841 38.322 252 36.6629 252 35V35V26.4473C252 23.1627 249.337 20.5 246.053 20.5V20.5C245.685 20.5 245.318 20.4659 244.957 20.3981L229.5 17.5L217.18 15.8574C215.477 15.6302 213.953 14.6801 213 13.25V13.25L212.63 12.6952C212.026 11.7897 210.771 11.6076 209.935 12.3043V12.3043C209.147 12.9608 207.974 12.8423 207.333 12.0415L207.14 11.8006C206.736 11.2946 206.123 11 205.475 11H204.224C203.183 11 202.246 11.634 201.86 12.601V12.601C201.628 13.1801 201.192 13.6541 200.634 13.933L200.194 14.1528C198.613 14.9437 197.776 16.7129 198.168 18.4376L202.5 37.5L206.176 54.5L214.5 93ZM217.5 42L216.299 36.5975C215.376 32.442 218.538 28.5 222.795 28.5V28.5C223.264 28.5 223.731 28.5495 224.189 28.6477L230.5 30L234.077 30.6707C236.642 31.1516 238.5 33.3908 238.5 36V36V36C238.5 39.9806 237.945 43.9417 236.852 47.7691L234.5 56L230.818 65.9424C229.946 68.2954 229.5 70.7846 229.5 73.2937V76.8584C229.5 77.282 229.417 77.7015 229.255 78.0929V78.0929C227.924 81.3079 223.15 80.4339 223.044 76.9562L223 75.5L222.44 72.1373C222.147 70.3821 222 68.6057 222 66.8263V66.8263C222 63.9549 221.617 61.0963 220.862 58.3261L219 51.5L217.5 42Z" fill="#28233B"/>
<path d="M190 58.5L201.5 63.5L206.176 54.5L202.5 37.5L190 58.5Z" fill="#28233B"/>
<path d="M45.5265 82.1465C38.908 93.6016 34.6282 106.256 32.9352 119.377L31.4439 130.935C30.1561 140.915 27.2916 150.627 22.9573 159.708V159.708C20.3252 165.223 18.2312 170.979 16.7042 176.896L15 183.5L13 195L12.6981 201.34C12.567 204.092 11.958 206.801 10.8982 209.344L9.17353 213.484C8.09399 216.074 6.11867 218.191 3.60819 219.446L3.01719 219.741C2.67336 219.913 2.34865 220.121 2.04847 220.361V220.361C0.753715 221.397 0 222.965 0 224.623V225.5V226.599C0 227.855 0.23968 229.099 0.706181 230.265L0.737191 230.343C0.912117 230.78 1.12175 231.203 1.36407 231.607V231.607C2.10988 232.85 3.1502 233.89 4.39321 234.636L5 235L9 237.5V237.5C11.6518 238.826 14.4869 239.748 17.4113 240.235L19 240.5L24 242L27.1696 243.189C27.7124 243.392 28.3012 243.44 28.8697 243.326L29.4508 243.21C30.1063 243.079 30.7839 243.284 31.2566 243.757V243.757C31.4177 243.918 31.55 244.105 31.648 244.311L68.7612 322.248C73.8562 332.948 76.5 344.649 76.5 356.5V356.5L77.5 364L78.1304 367.782C78.3758 369.255 78.8068 370.69 79.4131 372.054V372.054C80.1336 373.676 81.0941 375.179 82.2623 376.514L84 378.5L85.3557 379.856C86.4393 380.939 87.7424 381.778 89.1773 382.316V382.316C90.3826 382.768 91.6594 383 92.9467 383H95.8783C96.9524 383 98.0195 382.827 99.0385 382.487V382.487C100.967 381.844 102.653 380.629 103.873 379.003L104.328 378.396C104.775 377.8 105.168 377.165 105.501 376.498L106.432 374.636C106.477 374.546 106.536 374.464 106.608 374.392V374.392C107.053 373.947 107.801 374.056 108.1 374.61L116.729 390.574C117.241 391.522 117.858 392.409 118.568 393.22L121 396L125 401L126.757 403.762C127.916 405.582 129.27 407.27 130.795 408.795L131.91 409.91C132.966 410.966 133.881 412.153 134.633 413.442L136.732 417.04C136.907 417.341 137 417.684 137 418.032V418.032C137 419.119 137.881 420 138.968 420H156L148 409.5L140.5 397.5L135 389L127 378.5L121.447 371.981C117.491 367.337 113.117 363.064 108.382 359.217L107.5 358.5L106.391 357.613C105.555 356.944 104.391 356.866 103.472 357.417V357.417C102.853 357.788 102.419 358.404 102.278 359.112L102.169 359.657C102.058 360.212 102.071 360.785 102.208 361.334L102.435 362.242C102.478 362.413 102.55 362.575 102.648 362.721V362.721C103.118 363.428 102.928 364.382 102.221 364.852L95.2176 369.522C94.7497 369.834 94.1999 370 93.6376 370V370C92.1493 370 90.9119 368.854 90.7977 367.37L90.5391 364.009C90.5131 363.67 90.4605 363.334 90.3818 363.004L88 353V353C87.3379 349.689 87.2277 346.292 87.6739 342.946L88 340.5V340.5C89.297 334.339 88.5254 327.923 85.8049 322.245L67.6439 284.344C67.22 283.459 67 282.491 67 281.51V278.706C67 278.265 67.2204 277.853 67.5873 277.608V277.608C68.1162 277.256 68.3183 276.576 68.0679 275.992L67 273.5V273.5C65.3395 269.847 63.2393 266.41 60.7458 263.266L53 253.5V253.5C51.67 251.172 50.1107 248.984 48.3455 246.966L40.5 238L32.7709 230.271C31.6223 229.122 30.1276 228.384 28.5175 228.169V228.169C22.9138 227.422 20.185 220.92 23.577 216.397L23.812 216.084C24.5911 215.045 25.0921 213.825 25.2675 212.538L28 192.5L30.9426 177.296C30.9808 177.099 31.0419 176.908 31.1249 176.725V176.725C32.2606 174.227 36 175.037 36 177.781V178.148C36 178.381 36.0312 178.614 36.0927 178.84L39 189.5L45.1547 208.843C45.6788 210.49 45.2961 212.292 44.1477 213.584V213.584C42.8449 215.049 42.5415 217.151 43.3765 218.925L44.9698 222.311C45.6319 223.718 46.8028 224.821 48.2463 225.399L49.7486 225.999C50.5392 226.316 51.4309 226.254 52.1702 225.831V225.831C53.4715 225.088 55.1374 225.52 55.9318 226.791V226.791C56.5674 227.808 56.4985 229.127 55.7493 230.063L54.3241 231.845C53.467 232.916 53 234.248 53 235.62V243.5V253.5V253.5C57.9545 255.482 63.2416 256.5 68.5777 256.5H73.5H83.3548C84.4313 256.5 85.4876 256.207 86.4107 255.654V255.654C88.5632 254.362 89.6714 251.857 89.1791 249.396L89.1597 249.298C89.0537 248.769 88.8775 248.255 88.6359 247.772L88.6095 247.719C87.3506 245.201 84.6181 243.775 81.8328 244.183L68.9684 246.066C67.4036 246.295 66 245.081 66 243.5V243.5V243.5C66 238.885 66.9685 234.321 68.843 230.103L69.1391 229.437C69.7122 228.148 70.385 226.905 71.1515 225.72L74.2929 220.865C75.0808 219.648 75.5 218.228 75.5 216.778V216.778C75.5 215.293 75.0603 213.84 74.2364 212.605L74.1538 212.481C72.5191 210.029 69.6707 208.671 66.7366 208.947L65.3069 209.081C59.8036 209.597 54.8549 205.726 54.0299 200.26L51.7942 185.449C51.5984 184.152 51.5 182.841 51.5 181.529V153.131C51.5 147.388 51.9948 141.655 52.9788 135.997L55.5 121.5L63 93L73.5 67.5L82 51.5L89.4893 38.3937C89.8287 37.7998 90.2333 37.2455 90.6955 36.7412V36.7412C93.5253 33.6542 98.0827 32.8673 101.784 34.8267L103.051 35.4976C103.682 35.8317 104.28 36.2263 104.835 36.6756L109.729 40.6375C112.904 43.2083 115.867 46.0314 118.589 49.0792L127 58.5V58.5C131.979 64.4749 136.165 71.0683 139.454 78.1163L141.5 82.5L143.103 87.132C145.031 92.6998 146.462 98.427 147.381 104.247L147.5 105L151 117.5L152.439 121.817C153.098 123.794 154.739 125.286 156.769 125.754L157.24 125.863C158.957 126.259 160.757 125.743 162.003 124.497V124.497C162.962 123.538 163.5 122.238 163.5 120.883V118.89C163.5 117.968 163.371 117.05 163.118 116.164L156.5 93L149.5 72.5L144.5 63.5V63.5C141.176 57.5172 137.222 51.9073 132.704 46.7663L130.603 44.3764C126.879 40.1383 122.701 36.322 118.143 32.9962L110.172 27.1794C107.745 25.4085 105.011 24.1029 102.108 23.3288L101.296 23.1122C95.0682 21.4515 88.4273 22.5485 83.0646 26.1236V26.1236C80.7095 27.6937 78.6726 29.6951 77.0615 32.0223L61.5 54.5L45.5265 82.1465Z" fill="#28233B"/>
<path d="M378.131 190.121C372.405 182.743 365.674 176.204 358.134 170.694L352.67 166.701C346.576 162.248 339.998 158.499 333.06 155.526L326 152.5L304 145.5L286 142L269.5 139.5L253 137.5V137.5C251.195 137.5 249.58 138.619 248.947 140.309L247 145.5L244.5 152.5L229.709 195L245.5 204L253 209L256.442 205.43C262.097 199.566 271.336 199.103 277.549 204.375L278.425 205.118C281.327 207.58 283 211.194 283 215V215L312 220L326.293 221.143C333.41 221.713 340.568 221.513 347.643 220.549L349.732 220.264C355.89 219.424 361.932 217.879 367.737 215.659V215.659C373.229 213.559 378.477 210.868 383.387 207.633L388.903 204L378.131 190.121Z" fill="#1A1826"/>
<path d="M159.395 222.196C158.618 223.638 156.424 222.994 156.549 221.361L157.463 209.476C157.488 209.16 157.549 208.848 157.647 208.546L160.555 199.528C161.664 196.093 165.171 194.034 168.711 194.742V194.742C169.563 194.913 170.377 195.238 171.112 195.702L179.5 201V201C182.191 202.682 181.292 206.81 178.145 207.22L176.887 207.384C176.304 207.46 175.745 207.67 175.256 207.996L171.788 210.308C170.599 211.101 169.491 212.009 168.48 213.02L164.5 217L159.657 221.843C159.553 221.947 159.464 222.066 159.395 222.196V222.196Z" fill="#6E6C7E"/>
<path d="M203.062 201.511C205.338 203.159 207.323 205.175 208.934 207.477L209.359 208.084C209.786 208.694 210.167 209.334 210.5 210V210V210C213.971 208.422 216.519 205.332 217.408 201.625L220.312 189.5L226 175L230 160.5L235.5 147L235.663 146.429C236.568 143.262 232.913 140.772 230.297 142.773V142.773C230.1 142.924 229.919 143.096 229.759 143.286L222 152.5L216.668 158.721C214.227 161.569 212.022 164.611 210.075 167.818V167.818C206.381 173.903 203.65 180.522 201.98 187.442L199.25 198.75L203.062 201.511Z" fill="#C4C4C4"/>
<path d="M222.795 28.5C218.538 28.5 215.376 32.442 216.299 36.5975L217.5 42L219 51.5L220.862 58.3261C221.617 61.0963 222 63.9549 222 66.8263V66.8263C222 68.6057 222.147 70.3821 222.44 72.1373L223 75.5L223.044 76.9562C223.15 80.4339 227.924 81.3079 229.255 78.0929V78.0929C229.417 77.7015 229.5 77.282 229.5 76.8584V73.2937C229.5 70.7846 229.946 68.2954 230.818 65.9424L234.5 56L236.852 47.7691C237.945 43.9417 238.5 39.9806 238.5 36V36V36C238.5 33.3908 236.642 31.1516 234.077 30.6707L230.5 30L224.189 28.6477C223.731 28.5495 223.264 28.5 222.795 28.5V28.5Z" fill="#D9E0EE"/>
<path fill-rule="evenodd" clip-rule="evenodd" d="M73.5 181C69.518 182.422 65.1042 180.615 63.2625 176.809L60.3996 170.892C59.4762 168.984 58.9515 166.908 58.8573 164.79L58 145.5L59.0068 134.426C59.6669 127.164 61.1194 119.996 63.3383 113.05L68.4791 96.9566C70.4881 90.6677 73.1149 84.5931 76.3212 78.8219L86.5 60.5L89.9985 54.7751C91.0482 53.0576 93.3859 52.6879 94.9142 53.9979V53.9979C95.2994 54.3281 95.7563 54.5641 96.2485 54.6871L98.1154 55.1538C100.321 55.7054 102.313 56.903 103.834 58.5932L110.5 66L138.5 105.5L142.22 111.39C143.735 113.789 144.977 116.35 145.921 119.026L146.834 121.612C147.276 122.866 147.873 124.06 148.611 125.166L149.791 126.936C152.1 130.4 152.475 134.806 150.784 138.611V138.611C149.942 140.505 148.629 142.153 146.971 143.397L141.5 147.5L114.707 169.171C109.96 173.011 104.431 175.767 98.5077 177.248L96.4294 177.768C94.4838 178.254 92.4859 178.5 90.4804 178.5H87.8682C86.962 178.5 86.0617 178.354 85.202 178.067V178.067C83.1466 177.382 80.9064 177.515 78.946 178.437L73.5 181V181ZM68.5 157.094C68.5 157.696 68.5738 158.295 68.7196 158.879L70.1292 164.517C70.7702 167.081 73.8498 168.12 75.9134 166.469V166.469C76.3004 166.16 76.7467 165.933 77.2248 165.802L78.8832 165.35C80.8769 164.806 83.0055 165.087 84.7906 166.128V166.128C86.8184 167.311 89.275 167.504 91.4629 166.653L95.1129 165.234C96.3659 164.747 97.5516 164.102 98.6414 163.315L106 158V158C111.649 155.009 116.949 151.401 121.802 147.241L125 144.5L132.5 138V138C136.012 134.78 136.839 129.563 134.493 125.415L104 71.5L101.049 67.442C100.424 66.5834 99.3156 66.2281 98.3084 66.5639V66.5639C97.4967 66.8344 96.8864 67.5111 96.7008 68.3464L96.1786 70.6963C96.06 71.2301 95.8763 71.7473 95.6318 72.2364L92 79.5L91.1748 80.7103C86.7405 87.214 83.0895 94.2186 80.2978 101.579L79 105L74.8561 116.879C72.6245 123.276 71.0488 129.884 70.1533 136.6L68.5 149V157.094Z" fill="#28233B"/>
<path d="M252 35C252 36.6629 251.841 38.322 251.526 39.9547L246.5 66L232.5 123V123C232.5 123.984 233.464 124.679 234.397 124.368L238.1 123.133C238.366 123.045 238.623 122.93 238.866 122.791L245.5 119L250.058 116.265C250.351 116.089 250.622 115.878 250.865 115.635L250.932 115.568C252.167 114.333 254.054 114.027 255.616 114.808V114.808C255.871 114.936 256.113 115.09 256.336 115.269L256.408 115.326C257.712 116.37 258.4 118.004 258.233 119.666L258.11 120.897C258.037 121.628 257.853 122.344 257.563 123.019L256.596 125.277C256.532 125.424 256.5 125.582 256.5 125.742V125.742C256.5 126.424 257.075 126.964 257.755 126.922L264.5 126.5H271.5L273.81 126.644C277.594 126.881 281.343 127.503 285 128.5V128.5L293.5 130.5L294.039 130.577C298.249 131.178 301.402 126.804 299.5 123V123L296 113.5L290.5 102L286 90.5L280.5 78.5L266.5 53L263.591 48.8439C260.867 44.9529 257.87 41.2609 254.621 37.796L252 35V35Z" fill="#D9E0EE"/>
<path d="M75.9134 166.469C73.8498 168.12 70.7702 167.081 70.1292 164.517L68.7196 158.879C68.5738 158.295 68.5 157.696 68.5 157.094V149L70.1533 136.6C71.0488 129.884 72.6245 123.276 74.8561 116.879L79 105L80.2978 101.579C83.0895 94.2186 86.7405 87.214 91.1748 80.7103L92 79.5L95.6318 72.2364C95.8763 71.7473 96.06 71.2301 96.1786 70.6963L96.7008 68.3464C96.8864 67.5111 97.4967 66.8344 98.3084 66.5639V66.5639C99.3156 66.2281 100.424 66.5834 101.049 67.442L104 71.5L134.493 125.415C136.839 129.563 136.012 134.78 132.5 138V138L125 144.5L121.802 147.241C116.949 151.401 111.649 155.009 106 158V158L98.6414 163.315C97.5516 164.102 96.3659 164.747 95.1129 165.234L91.4629 166.653C89.275 167.504 86.8184 167.311 84.7906 166.128V166.128C83.0055 165.087 80.8769 164.806 78.8832 165.35L77.2248 165.802C76.7467 165.933 76.3004 166.16 75.9134 166.469V166.469Z" fill="#F5E0DC"/>
<path d="M201.5 63.5L204.35 68.6299C205.695 71.0518 205.759 73.9817 204.52 76.4598V76.4598C202.757 79.9867 203.686 84.2656 206.754 86.7432L214.5 93L206.176 54.5L201.5 63.5Z" fill="#D9E0EE"/>
<path d="M53 253.5V243.5V235.62C53 234.248 53.467 232.916 54.3241 231.845L55.7493 230.063C56.4985 229.127 56.5674 227.808 55.9318 226.791V226.791C55.1374 225.52 53.4715 225.088 52.1702 225.831V225.831C51.4309 226.254 50.5392 226.316 49.7486 225.999L48.2463 225.399C46.8028 224.821 45.6319 223.718 44.9698 222.311L43.3765 218.925C42.5415 217.151 42.8449 215.049 44.1477 213.584V213.584C45.2961 212.292 45.6788 210.49 45.1547 208.843L39 189.5L36.0927 178.84C36.0312 178.614 36 178.381 36 178.148V177.781C36 175.037 32.2606 174.227 31.1249 176.725V176.725C31.0419 176.908 30.9808 177.099 30.9426 177.296L28 192.5L25.2675 212.538C25.0921 213.825 24.5911 215.045 23.812 216.084L23.577 216.397C20.185 220.92 22.9138 227.422 28.5175 228.169V228.169C30.1276 228.384 31.6223 229.122 32.7709 230.271L40.5 238L48.3455 246.966C50.1107 248.984 51.67 251.172 53 253.5V253.5Z" fill="#D9E0EE"/>
<path d="M169.41 241.674C169.803 241.225 170.161 240.747 170.481 240.244L175.731 231.994C176.57 230.676 177.641 229.52 178.891 228.582V228.582C181.531 226.602 184.825 225.703 188.105 226.067L189.638 226.238C191.205 226.412 192.74 226.805 194.197 227.405L195.513 227.947C198.805 229.302 201.796 231.296 204.313 233.813L205 234.5L205.419 234.989C207.131 236.986 208.552 239.215 209.641 241.61L209.834 242.035C210.277 243.01 210.648 244.017 210.942 245.048V245.048C211.964 248.622 212.048 252.4 211.187 256.016L210.847 257.442C210.286 259.801 209.375 262.063 208.146 264.152L207.221 265.724C205.764 268.202 203.708 270.275 201.243 271.754V271.754C198.787 273.228 196.001 274.065 193.139 274.19L187.446 274.437C186.483 274.479 185.519 274.447 184.562 274.34V274.34C179.713 273.801 175.265 271.393 172.163 267.627L171.891 267.297C170.637 265.774 169.618 264.073 168.867 262.249L168.01 260.168C167.013 257.746 166.5 255.152 166.5 252.534V249.419C166.5 246.57 167.534 243.818 169.41 241.674V241.674Z" fill="#28233B"/>
<path fill-rule="evenodd" clip-rule="evenodd" d="M195.523 281.368C193.371 283.282 190.31 283.788 187.656 282.671L183.895 281.087C182.968 280.697 182.086 280.207 181.264 279.627L178.575 277.729C175.541 275.588 172.831 273.02 170.53 270.105L170.266 269.77C167.773 266.612 165.825 263.06 164.504 259.26L164.276 258.606C163.1 255.226 162.5 251.673 162.5 248.094V247.173C162.5 242.147 163.826 237.209 166.344 232.86V232.86C167.444 230.96 168.76 229.193 170.265 227.594L173.98 223.646C175.322 222.221 176.831 220.962 178.475 219.899V219.899C182.408 217.354 186.992 216 191.677 216H191.935C194.954 216 197.97 216.551 200.797 217.611V217.611C203.238 218.527 205.544 219.82 207.594 221.431L207.854 221.635C210.268 223.532 212.347 225.818 214.007 228.4L216 231.5L218.3 235.238C219.431 237.075 220.371 239.021 221.108 241.048V241.048C221.702 242.68 222.161 244.358 222.481 246.065L222.953 248.583C223.317 250.523 223.5 252.494 223.5 254.468V256.433C223.5 258.793 223.094 261.136 222.3 263.36V263.36C221.441 265.766 220.141 267.991 218.468 269.921L217.335 271.229C215.467 273.385 213.16 275.118 210.569 276.314V276.314C208.865 277.101 207.059 277.645 205.203 277.93L203.606 278.176C202.206 278.391 200.836 278.765 199.522 279.291L197.713 280.015C196.911 280.336 196.17 280.794 195.523 281.368V281.368ZM178.891 228.582C177.641 229.52 176.57 230.676 175.731 231.994L170.481 240.244C170.161 240.747 169.803 241.225 169.41 241.674V241.674C167.534 243.818 166.5 246.57 166.5 249.419V252.534C166.5 255.152 167.013 257.746 168.01 260.168L168.867 262.249C169.618 264.073 170.637 265.774 171.891 267.297L172.163 267.627C175.265 271.393 179.713 273.801 184.562 274.34V274.34C185.519 274.447 186.483 274.479 187.446 274.437L193.139 274.19C196.001 274.065 198.787 273.228 201.243 271.754V271.754C203.708 270.275 205.764 268.202 207.221 265.724L208.146 264.152C209.375 262.063 210.286 259.801 210.847 257.442L211.187 256.016C212.048 252.4 211.964 248.622 210.942 245.048V245.048C210.648 244.017 210.277 243.01 209.834 242.035L209.641 241.61C208.552 239.215 207.131 236.986 205.419 234.989L205 234.5L204.313 233.813C201.796 231.296 198.805 229.302 195.513 227.947L194.197 227.405C192.74 226.805 191.205 226.412 189.638 226.238L188.105 226.067C184.825 225.703 181.531 226.602 178.891 228.582V228.582Z" fill="#E5E5E5"/>
<path fill-rule="evenodd" clip-rule="evenodd" d="M149.5 72.5L156.5 93L163.118 116.164C163.371 117.05 163.5 117.968 163.5 118.89V120.883C163.5 122.238 162.962 123.538 162.003 124.497V124.497C160.757 125.743 158.957 126.259 157.24 125.863L156.769 125.754C154.739 125.286 153.098 123.794 152.439 121.817L151 117.5L147.5 105L147.381 104.247C146.462 98.427 145.031 92.6998 143.103 87.132L141.5 82.5L139.454 78.1163C136.165 71.0683 131.979 64.4749 127 58.5V58.5L118.589 49.0792C115.867 46.0314 112.904 43.2083 109.729 40.6375L104.835 36.6756C104.28 36.2263 103.682 35.8317 103.051 35.4976L101.784 34.8267C98.0827 32.8673 93.5253 33.6542 90.6955 36.7412V36.7412C90.2333 37.2455 89.8287 37.7998 89.4893 38.3937L82 51.5L73.5 67.5L63 93L55.5 121.5L52.9788 135.997C51.9948 141.655 51.5 147.388 51.5 153.131V181.529C51.5 182.841 51.5984 184.152 51.7942 185.449L54.0299 200.26C54.8549 205.726 59.8036 209.597 65.3069 209.081L66.7366 208.947C69.6707 208.671 72.5191 210.029 74.1538 212.481L74.2364 212.605C75.0603 213.84 75.5 215.293 75.5 216.778V216.778C75.5 218.228 75.0808 219.648 74.2929 220.865L71.1515 225.72C70.385 226.905 69.7122 228.148 69.1391 229.437L68.843 230.103C66.9685 234.321 66 238.885 66 243.5V243.5V243.5C66 245.081 67.4036 246.295 68.9684 246.066L81.8328 244.183C84.6181 243.775 87.3506 245.201 88.6095 247.719L88.6359 247.772C88.8775 248.255 89.0537 248.769 89.1597 249.298L89.1791 249.396C89.6714 251.857 88.5632 254.362 86.4107 255.654V255.654C85.4876 256.207 84.4313 256.5 83.3548 256.5H73.5H68.5777C63.2416 256.5 57.9545 255.482 53 253.5V253.5L60.7458 263.266C63.2393 266.41 65.3395 269.847 67 273.5V273.5L68.0679 275.992C68.3183 276.576 68.1162 277.256 67.5873 277.608V277.608C67.2204 277.853 67 278.265 67 278.706V281.51C67 282.491 67.22 283.459 67.6439 284.344L85.8049 322.245C88.5254 327.923 89.297 334.339 88 340.5V340.5L87.6739 342.946C87.2277 346.292 87.3379 349.689 88 353V353L90.3818 363.004C90.4605 363.334 90.5131 363.67 90.5391 364.009L90.7977 367.37C90.9119 368.854 92.1493 370 93.6376 370V370C94.1999 370 94.7497 369.834 95.2176 369.522L102.221 364.852C102.928 364.382 103.118 363.428 102.648 362.721V362.721C102.55 362.575 102.478 362.413 102.435 362.242L102.208 361.334C102.071 360.785 102.058 360.212 102.169 359.657L102.278 359.112C102.419 358.404 102.853 357.788 103.472 357.417V357.417C104.391 356.866 105.555 356.944 106.391 357.613L107.5 358.5L108.382 359.217C113.117 363.064 117.491 367.337 121.447 371.981L127 378.5L135 389L140.5 397.5L148 409.5L156 420L366.5 420.5V420.5C366.5 419.581 367.019 418.74 367.842 418.329L368.5 418L369.66 417.337C371.209 416.452 372.593 415.308 373.754 413.954L374.272 413.349C374.756 412.785 375.168 412.164 375.5 411.5V411.5C375.832 410.836 376.244 410.215 376.728 409.651L377.763 408.443C378.571 407.501 379.093 406.347 379.269 405.118V405.118C379.421 404.056 379.308 402.972 378.941 401.964L377.5 398V398C376.504 395.676 375.223 393.484 373.687 391.475L369.974 386.62C369.659 386.207 369.383 385.766 369.151 385.302L368.259 383.517C367.776 382.552 367.729 381.427 368.13 380.425V380.425C368.373 379.819 368.768 379.286 369.278 378.878L371 377.5L374 375.5L379.5 372.5L384.5 370.5L389.5 368.5L389.686 368.42C391.891 367.475 394.004 366.331 396 365V365L399.5 362.5L402.318 360.386C403.103 359.798 403.81 359.112 404.423 358.346V358.346C405.137 357.454 405.716 356.461 406.14 355.399L406.5 354.5L407.543 352.066C407.845 351.363 408 350.605 408 349.84V349.84C408 348.342 407.405 346.905 406.345 345.845L405.5 345L395 336.5L381.386 327.717C380.13 326.907 378.817 326.19 377.457 325.571L376.183 324.992C374.733 324.333 373.208 323.856 371.641 323.571V323.571C369.561 323.193 367.557 322.476 365.709 321.45L365.377 321.265C364.461 320.756 363.595 320.162 362.79 319.491L361.861 318.718C361.29 318.242 360.655 317.847 359.975 317.545L359.224 317.211C357.499 316.444 355.522 316.489 353.834 317.333V317.333C352.957 317.772 351.989 318 351.009 318H348.944C347.325 318 345.717 318.261 344.181 318.773L343.088 319.137C341.369 319.71 339.586 320.07 337.78 320.209L334 320.5L328.45 321.332C325.488 321.777 322.496 322 319.5 322V322L311 323L293.5 324H292.017C286.018 324 280.031 323.46 274.128 322.387L272 322L263.5 320.5L253 318L241.5 315L238.341 314.097C233.454 312.701 228.681 310.934 224.063 308.813L212.5 303.5L207.505 300.811C206.503 300.271 205.463 299.805 204.393 299.416L203.919 299.243C201.657 298.421 199.269 298 196.862 298V298C195.623 298 194.387 297.889 193.168 297.667L193.103 297.655C190.718 297.222 188.425 296.386 186.32 295.183L186 295L185.472 294.736C182.497 293.248 179.661 291.496 177 289.5V289.5L174 287.5V287.5C171.341 285.505 168.897 283.239 166.707 280.737L166.5 280.5L164.8 278.46C164.268 277.821 163.683 277.228 163.051 276.687V276.687C161.372 275.247 160.034 273.451 159.135 271.429L154.5 261L152.881 256.79C152.3 255.28 151.409 253.909 150.265 252.765L150.018 252.518C148.698 251.198 147.761 249.543 147.308 247.731V247.731C147.103 246.913 147 246.074 147 245.231V242.5V242.5C147 241.522 146.71 240.566 146.168 239.752L145.805 239.208C145.274 238.411 144.909 237.515 144.732 236.573L143.969 232.503C143.657 230.838 143.5 229.147 143.5 227.453V211.5V211.5C143.833 207.841 144.508 204.222 145.517 200.69L146 199L148 193.5L148.29 192.862C149.751 189.647 151.779 186.721 154.276 184.224L155.502 182.998C155.833 182.667 156.192 182.363 156.573 182.091V182.091C158.444 180.754 160.777 180.232 163.039 180.643L165 181L167.467 181.74C169.148 182.244 170.754 182.971 172.243 183.902V183.902C173.411 184.632 174.653 185.237 175.948 185.708L177.092 186.124C178.695 186.707 180.247 187.42 181.733 188.256L187.5 191.5L189.75 192.5L194.5 178.5V178.5C197.648 169.22 202.227 160.418 208 152.5V152.5L215.66 140.052C215.885 139.687 216.176 139.368 216.518 139.111V139.111C218.289 137.783 218.345 135.146 216.632 133.744L215.136 132.52C214.715 132.176 214.354 131.764 214.067 131.301L208.479 122.274C208.161 121.761 207.919 121.204 207.761 120.622L207.203 118.579C206.788 117.057 205.405 116 203.826 116V116C203.283 116 202.747 116.127 202.261 116.37L198 118.5L194.236 120.382C192.866 121.067 191.226 120.919 190 120V120L189.133 118.762C187.552 116.503 187.552 113.497 189.133 111.238V111.238C189.704 110.423 190.452 109.749 191.321 109.266L197.48 105.845C198.467 105.296 199.252 104.445 199.72 103.417V103.417C200.756 101.137 200.046 98.4425 198.02 96.9694L196.923 96.1709C196.312 95.7266 195.632 95.3851 194.911 95.1598L192.071 94.2721C189.579 93.4935 187.748 91.3647 187.352 88.7849V88.7849C187.124 87.3028 187.389 85.7869 188.107 84.4705L189.182 82.4993C189.719 81.5155 190 80.4128 190 79.2921V79.2921C190 76.9395 188.766 74.7594 186.748 73.549L185 72.5L178 69.5L176.616 69.0676C172.26 67.7064 167.656 67.3349 163.138 67.9803V67.9803C160.721 68.3255 158.355 68.9582 156.088 69.8647L149.5 72.5ZM58.8573 164.79C58.9515 166.908 59.4762 168.984 60.3996 170.892L63.2625 176.809C65.1042 180.615 69.518 182.422 73.5 181V181L78.946 178.437C80.9064 177.515 83.1466 177.382 85.202 178.067V178.067C86.0617 178.354 86.962 178.5 87.8682 178.5H90.4804C92.4859 178.5 94.4838 178.254 96.4294 177.768L98.5077 177.248C104.431 175.767 109.96 173.011 114.707 169.171L141.5 147.5L146.971 143.397C148.629 142.153 149.942 140.505 150.784 138.611V138.611C152.475 134.806 152.1 130.4 149.791 126.936L148.611 125.166C147.873 124.06 147.276 122.866 146.834 121.612L145.921 119.026C144.977 116.35 143.735 113.789 142.22 111.39L138.5 105.5L110.5 66L103.834 58.5932C102.313 56.903 100.321 55.7054 98.1154 55.1538L96.2485 54.6871C95.7563 54.5641 95.2994 54.3281 94.9142 53.9979V53.9979C93.3859 52.6879 91.0482 53.0576 89.9985 54.7751L86.5 60.5L76.3212 78.8219C73.1149 84.5931 70.4881 90.6677 68.4791 96.9566L63.3383 113.05C61.1194 119.996 59.6669 127.164 59.0068 134.426L58 145.5L58.8573 164.79Z" fill="#D9E0EE"/>
<path fill-rule="evenodd" clip-rule="evenodd" d="M213 13.25C213.953 14.6801 215.477 15.6302 217.18 15.8574L229.5 17.5L244.957 20.3981C245.318 20.4659 245.685 20.5 246.053 20.5V20.5C249.337 20.5 252 23.1627 252 26.4473V35L254.621 37.796C257.87 41.2609 260.867 44.9529 263.591 48.8439L266.5 53L280.5 78.5L286 90.5L290.5 102L296 113.5L299.5 123V123C301.402 126.804 298.249 131.178 294.039 130.577L293.5 130.5L285 128.5V128.5C281.343 127.503 277.594 126.881 273.81 126.644L271.5 126.5H264.5L257.755 126.922C257.075 126.964 256.5 126.424 256.5 125.742V125.742C256.5 125.582 256.532 125.424 256.596 125.277L257.563 123.019C257.853 122.344 258.037 121.628 258.11 120.897L258.233 119.666C258.4 118.004 257.712 116.37 256.408 115.326L256.336 115.269C256.113 115.09 255.871 114.936 255.616 114.808V114.808C254.054 114.027 252.167 114.333 250.932 115.568L250.865 115.635C250.622 115.878 250.351 116.089 250.058 116.265L245.5 119L238.866 122.791C238.623 122.93 238.366 123.045 238.1 123.133L234.397 124.368C233.464 124.679 232.5 123.984 232.5 123V123H231.146C226.008 123 221.161 120.62 218.019 116.554V116.554C215.74 113.604 212.533 111.508 208.916 110.604L206.5 110L194.5 117.5L190 120V120C191.226 120.919 192.866 121.067 194.236 120.382L198 118.5L202.261 116.37C202.747 116.127 203.283 116 203.826 116V116C205.405 116 206.788 117.057 207.203 118.579L207.761 120.622C207.919 121.204 208.161 121.761 208.479 122.274L214.067 131.301C214.354 131.764 214.715 132.176 215.136 132.52L216.632 133.744C218.345 135.146 218.289 137.783 216.518 139.111V139.111C216.176 139.368 215.885 139.687 215.66 140.052L208 152.5V152.5C202.227 160.418 197.648 169.22 194.5 178.5V178.5L189.75 192.5V192.5C191.246 193.165 192.668 193.984 193.994 194.944L199.25 198.75L201.98 187.442C203.65 180.522 206.381 173.903 210.075 167.818V167.818C212.022 164.611 214.227 161.569 216.668 158.721L222 152.5L229.759 143.286C229.919 143.096 230.1 142.924 230.297 142.773V142.773C232.913 140.772 236.568 143.262 235.663 146.429L235.5 147L230 160.5L226 175L220.312 189.5L217.408 201.625C216.519 205.332 213.971 208.422 210.5 210V210V210C212.156 213.312 214.335 216.335 216.953 218.953L217.5 219.5L220.312 222L229.709 195L244.5 152.5L247 145.5L248.947 140.309C249.58 138.619 251.195 137.5 253 137.5V137.5L269.5 139.5L286 142L304 145.5L326 152.5L333.06 155.526C339.998 158.499 346.576 162.248 352.67 166.701L358.134 170.694C365.674 176.204 372.405 182.743 378.131 190.121L388.903 204L390.407 205.938C393.787 210.293 396.565 215.083 398.668 220.179L411.43 251.117C411.783 251.975 411.659 252.955 411.103 253.697V253.697C410.715 254.214 410.149 254.57 409.515 254.697L405.5 255.5V255.5C401.552 256.487 397.431 256.557 393.453 255.704L392.5 255.5L388.973 254.398C386.014 253.473 382.916 253.075 379.819 253.223V253.223C375.986 253.405 372.238 254.42 368.835 256.195L367.327 256.982C364.129 258.65 360.688 259.802 357.13 260.395L353.307 261.032C351.444 261.343 349.548 261.405 347.668 261.217V261.217C346.226 261.073 344.803 260.782 343.42 260.35L338.919 258.944C337.975 258.649 337.061 258.266 336.188 257.8L333.75 256.5C331.362 255.226 328.547 255.019 325.997 255.93L324.993 256.288C323.699 256.75 322.588 257.617 321.826 258.76V258.76C321.283 259.576 320.934 260.505 320.807 261.477L320.149 266.527C319.72 269.816 319.874 273.156 320.605 276.392L321.769 281.547C322.587 285.169 323.839 288.679 325.5 292V292L331.465 303.184C332.529 305.179 331.543 307.652 329.397 308.368V308.368C329.133 308.456 328.86 308.513 328.583 308.539L313 310L296.916 310.643C290.984 310.881 285.042 310.589 279.162 309.773L270 308.5L260.5 306L251.5 303.5L244 302L237.5 300L230 297L224 295L217.5 292.5L211.352 289.264C209.9 288.5 209.865 286.435 211.289 285.621V285.621C211.429 285.541 211.578 285.477 211.733 285.431L215.077 284.448C218.316 283.495 221.294 281.814 223.783 279.532V279.532C225.254 278.184 226.536 276.642 227.594 274.95L231 269.5V269.5C232.325 266.519 233.165 263.346 233.49 260.1L233.5 260L233.968 257.893C234.322 256.302 234.5 254.678 234.5 253.049V251.858C234.5 249.968 234.16 248.094 233.496 246.324V246.324C233.166 245.443 232.915 244.534 232.747 243.609L232.212 240.663C232.071 239.889 231.875 239.125 231.626 238.378V238.378C231.21 237.13 230.648 235.936 229.951 234.821L226 228.5L223.41 225.263C222.472 224.09 221.435 222.998 220.312 222V222L217.5 219.5L216.953 218.953C214.335 216.335 212.156 213.312 210.5 210V210V210C210.167 209.334 209.786 208.694 209.359 208.084L208.934 207.477C207.323 205.175 205.338 203.159 203.062 201.511L199.25 198.75L193.994 194.944C192.668 193.984 191.246 193.165 189.75 192.5V192.5L187.5 191.5L181.733 188.256C180.247 187.42 178.695 186.707 177.092 186.124L175.948 185.708C174.653 185.237 173.411 184.632 172.243 183.902V183.902C170.754 182.971 169.148 182.244 167.467 181.74L165 181L163.039 180.643C160.777 180.232 158.444 180.754 156.573 182.091V182.091C156.192 182.363 155.833 182.667 155.502 182.998L154.276 184.224C151.779 186.721 149.751 189.647 148.29 192.862L148 193.5L146 199L145.517 200.69C144.508 204.222 143.833 207.841 143.5 211.5V211.5V227.453C143.5 229.147 143.657 230.838 143.969 232.503L144.732 236.573C144.909 237.515 145.274 238.411 145.805 239.208L146.168 239.752C146.71 240.566 147 241.522 147 242.5V242.5V245.231C147 246.074 147.103 246.913 147.308 247.731V247.731C147.761 249.543 148.698 251.198 150.018 252.518L150.265 252.765C151.409 253.909 152.3 255.28 152.881 256.79L154.5 261L159.135 271.429C160.034 273.451 161.372 275.247 163.051 276.687V276.687C163.683 277.228 164.268 277.821 164.8 278.46L166.5 280.5L166.707 280.737C168.897 283.239 171.341 285.505 174 287.5V287.5L177 289.5V289.5C179.661 291.496 182.497 293.248 185.472 294.736L186 295L186.32 295.183C188.425 296.386 190.718 297.222 193.103 297.655L193.168 297.667C194.387 297.889 195.623 298 196.862 298V298C199.269 298 201.657 298.421 203.919 299.243L204.393 299.416C205.463 299.805 206.503 300.271 207.505 300.811L212.5 303.5L224.063 308.813C228.681 310.934 233.454 312.701 238.341 314.097L241.5 315L253 318L263.5 320.5L272 322L274.128 322.387C280.031 323.46 286.018 324 292.017 324H293.5L311 323L319.5 322V322C322.496 322 325.488 321.777 328.45 321.332L334 320.5L337.78 320.209C339.586 320.07 341.369 319.71 343.088 319.137L344.181 318.773C345.717 318.261 347.325 318 348.944 318H351.009C351.989 318 352.957 317.772 353.834 317.333V317.333C355.522 316.489 357.499 316.444 359.224 317.211L359.975 317.545C360.655 317.847 361.29 318.242 361.861 318.718L362.79 319.491C363.595 320.162 364.461 320.756 365.377 321.265L365.709 321.45C367.557 322.476 369.561 323.193 371.641 323.571V323.571C373.208 323.856 374.733 324.333 376.183 324.992L377.457 325.571C378.817 326.19 380.13 326.907 381.386 327.717L395 336.5L405.5 345L406.345 345.845C407.405 346.905 408 348.342 408 349.84V349.84C408 350.605 407.845 351.363 407.543 352.066L406.5 354.5L406.14 355.399C405.716 356.461 405.137 357.454 404.423 358.346V358.346C403.81 359.112 403.103 359.798 402.318 360.386L399.5 362.5L396 365V365C394.004 366.331 391.891 367.475 389.686 368.42L389.5 368.5L384.5 370.5L379.5 372.5L374 375.5L371 377.5L369.278 378.878C368.768 379.286 368.373 379.819 368.13 380.425V380.425C367.729 381.427 367.776 382.552 368.259 383.517L369.151 385.302C369.383 385.766 369.659 386.207 369.974 386.62L373.687 391.475C375.223 393.484 376.504 395.676 377.5 398V398L378.941 401.964C379.308 402.972 379.421 404.056 379.269 405.118V405.118C379.093 406.347 378.571 407.501 377.763 408.443L376.728 409.651C376.244 410.215 375.832 410.836 375.5 411.5V411.5C375.168 412.164 374.756 412.785 374.272 413.349L373.754 413.954C372.593 415.308 371.209 416.452 369.66 417.337L368.5 418L367.842 418.329C367.019 418.74 366.5 419.581 366.5 420.5V420.5H384.793C385.183 420.5 385.5 420.183 385.5 419.793V419.793C385.5 419.605 385.426 419.426 385.293 419.293L384.75 418.75C384.27 418.27 384 417.618 384 416.939V416V416C384 414.49 384.919 413.132 386.321 412.572L386.5 412.5V412.5C388.851 411.912 390.5 409.8 390.5 407.377V403.5V398C390.5 397.708 389.432 395.617 388.466 393.797C387.832 392.601 387.014 391.514 386.057 390.557L384.324 388.824C384.11 388.61 383.855 388.442 383.574 388.33L383.408 388.263C382.354 387.842 381.842 386.646 382.263 385.592V385.592C382.417 385.207 382.685 384.877 383.031 384.646L383.498 384.334C383.831 384.113 384.196 383.944 384.58 383.834L387.5 383V383C389.486 382.338 391.344 381.343 392.996 380.059L393.555 379.624C394.517 378.876 395.537 378.207 396.607 377.623L400.5 375.5L402.636 374.432C404.54 373.48 406.338 372.33 408 371V371L409.562 369.884C410.849 368.965 412.012 367.885 413.025 366.671L415.213 364.044C416.053 363.036 416.587 361.808 416.749 360.505L417.238 356.595C417.388 355.398 418.405 354.5 419.612 354.5V354.5C419.869 354.5 420.124 354.459 420.368 354.377L421.467 354.011C422.439 353.687 423.22 352.951 423.6 351.999V351.999C423.861 351.348 423.919 350.634 423.767 349.949L423.403 348.315C423.138 347.123 422.585 346.015 421.79 345.089L420.616 343.719C420.219 343.255 420 342.664 420 342.053V342.053C420 340.854 419.167 339.815 417.996 339.555L417.386 339.419C416.284 339.174 415.5 338.197 415.5 337.068V337.068C415.5 336.695 415.413 336.326 415.246 335.992L414.624 334.748C413.891 333.282 412.741 332.066 411.318 331.253L408.24 329.494C407.083 328.833 405.995 328.058 404.992 327.18L404.131 326.427C403.05 325.481 401.828 324.712 400.508 324.146L400.149 323.992C399.386 323.665 398.664 323.248 398 322.75V322.75C397.336 322.252 396.614 321.835 395.851 321.508L394.869 321.087C393.958 320.696 393.078 320.236 392.237 319.711L389.5 318L385 316L382.557 315.186C382.187 315.062 381.829 314.902 381.49 314.708L379.368 313.496C378.831 313.189 378.5 312.618 378.5 312V312C378.5 311.382 378.831 310.811 379.368 310.504L381.49 309.292C381.829 309.098 382.187 308.938 382.557 308.814L384.321 308.226C385.771 307.743 387.172 307.127 388.508 306.385L388.75 306.25C390.247 305.418 391.817 304.728 393.442 304.186L395.5 303.5L400.5 302L406.077 299.676C406.359 299.559 406.649 299.463 406.945 299.389L408.762 298.935C409.832 298.667 410.667 297.832 410.935 296.762V296.762C411.267 295.433 412.461 294.5 413.831 294.5H417.054C418.94 294.5 420.749 293.751 422.083 292.417L422.242 292.258C422.745 291.755 423.175 291.185 423.521 290.563L424.362 289.049C425.106 287.71 426.21 286.606 427.549 285.862L428.393 285.393C429.435 284.814 430.255 283.906 430.724 282.81L431.172 281.765C431.384 281.271 431.764 280.868 432.244 280.628V280.628C433.014 280.243 433.5 279.456 433.5 278.596V278.171C433.5 277.147 432.922 276.211 432.006 275.753V275.753C431.672 275.586 431.377 275.352 431.138 275.066L430.275 274.03C429.435 273.022 428.821 271.845 428.476 270.579L427.985 268.78C427.663 267.597 427.464 266.383 427.392 265.158L427.103 260.25C426.703 253.459 425.239 246.773 422.764 240.436L417.224 226.253C415.079 220.762 412.452 215.471 409.375 210.442L399.36 194.076C395.465 187.712 390.871 181.804 385.663 176.462L380.784 171.458C376.272 166.83 371.322 162.651 366.003 158.978L353 150L349.458 148.068C348.155 147.357 346.917 146.534 345.758 145.606V145.606C343.601 143.88 341.176 142.518 338.579 141.574L337 141L330.5 138.5L327.807 137.303C326.617 136.774 325.56 135.987 324.713 134.999L323.832 133.97C323.289 133.337 322.573 132.878 321.771 132.649V132.649C320.359 132.245 319.255 131.141 318.851 129.729L318.654 129.038C318.552 128.68 318.413 128.334 318.242 128.003L312 116L309 109.5L308.389 107.755C306.468 102.266 303.992 96.987 301 92V92L295 80L285 58.5L282.5 54.5L279.834 50.5017C278.949 49.1735 277.885 47.9732 276.673 46.9344V46.9344C275.562 45.9819 274.575 44.8933 273.736 43.6943L271.5 40.5L268.5 36.5L265.5 31.5V31.5C263.842 28.847 261.813 26.4447 259.474 24.3662L258.5 23.5L254 18.5L251.37 15.8703C250.458 14.9585 249.628 13.9688 248.889 12.9125L247.358 10.7251C246.791 9.91548 246.078 9.21868 245.256 8.67047V8.67047C244.105 7.90345 243.175 6.84946 242.556 5.61268L241.935 4.37057C241.646 3.79237 241.287 3.25181 240.867 2.761V2.761C239.364 1.00857 237.172 0 234.864 0H233V0C228.821 0 224.795 1.57409 221.724 4.40882L220 6L213 13.25V13.25ZM181.264 279.627C182.086 280.207 182.968 280.697 183.895 281.087L187.656 282.671C190.31 283.788 193.371 283.282 195.523 281.368V281.368C196.17 280.794 196.911 280.336 197.713 280.015L199.522 279.291C200.836 278.765 202.206 278.391 203.606 278.176L205.203 277.93C207.059 277.645 208.865 277.101 210.569 276.314V276.314C213.16 275.118 215.467 273.385 217.335 271.229L218.468 269.921C220.141 267.991 221.441 265.766 222.3 263.36V263.36C223.094 261.136 223.5 258.793 223.5 256.433V254.468C223.5 252.494 223.317 250.523 222.953 248.583L222.481 246.065C222.161 244.358 221.702 242.68 221.108 241.048V241.048C220.371 239.021 219.431 237.075 218.3 235.238L216 231.5L214.007 228.4C212.347 225.818 210.268 223.532 207.854 221.635L207.594 221.431C205.544 219.82 203.238 218.527 200.797 217.611V217.611C197.97 216.551 194.954 216 191.935 216H191.677C186.992 216 182.408 217.354 178.475 219.899V219.899C176.831 220.962 175.322 222.221 173.98 223.646L170.265 227.594C168.76 229.193 167.444 230.96 166.344 232.86V232.86C163.826 237.209 162.5 242.147 162.5 247.173V248.094C162.5 251.673 163.1 255.226 164.276 258.606L164.504 259.26C165.825 263.06 167.773 266.612 170.266 269.77L170.53 270.105C172.831 273.02 175.541 275.588 178.575 277.729L181.264 279.627ZM157.647 208.546C157.549 208.848 157.488 209.16 157.463 209.476L156.549 221.361C156.424 222.994 158.618 223.638 159.395 222.196V222.196C159.464 222.066 159.553 221.947 159.657 221.843L164.5 217L168.48 213.02C169.491 212.009 170.599 211.101 171.788 210.308L175.256 207.996C175.745 207.67 176.304 207.46 176.887 207.384L178.145 207.22C181.292 206.81 182.191 202.682 179.5 201V201L171.112 195.702C170.377 195.238 169.563 194.913 168.711 194.742V194.742C165.171 194.034 161.664 196.093 160.555 199.528L157.647 208.546ZM339.875 301.228C340.285 302.39 340.983 303.43 341.905 304.249V304.249C343.824 305.955 346.5 306.524 348.948 305.748L365.5 300.5L376.5 296.5L387.5 293L400.5 288L408.821 283.377C409.273 283.126 409.705 282.841 410.113 282.523V282.523C412.566 280.616 414 277.683 414 274.576V272.5V270.5C414 268.567 412.433 267 410.5 267V267H403.5L400.779 267.363C397.612 267.785 394.399 267.717 391.253 267.162L389.125 266.787C388.046 266.596 386.994 266.275 385.993 265.83L380.992 263.607C379.461 262.927 377.679 263.157 376.371 264.203V264.203C376.124 264.401 375.858 264.571 375.575 264.712L372.024 266.488C370.011 267.494 367.921 268.337 365.773 269.008L361 270.5L359.945 270.788C353.424 272.566 346.557 272.639 340 271V271L337.178 270.194C334.927 269.551 332.607 270.965 332.148 273.261V273.261C332.05 273.749 332.044 274.252 332.131 274.743L333.078 280.109C333.359 281.701 333.757 283.27 334.268 284.804L337.5 294.5L339.875 301.228Z" fill="#28233B"/>
</svg>
